<svg width="91" height="13" viewBox="0 0 91 13" fill="none" xmlns="http://www.w3.org/2000/svg">
<path d="M4.11912 10.3349C2.92682 10.3349 1.98939 9.9936 1.30684 9.31106C0.624295 8.62851 0.283021 7.6306 0.283021 6.31734V1.15934H1.579V6.2655C1.579 7.27637 1.79932 8.01507 2.23995 8.48163C2.68922 8.94818 3.31993 9.18146 4.13208 9.18146C4.95287 9.18146 5.58358 8.94818 6.02421 8.48163C6.47349 8.01507 6.69812 7.27637 6.69812 6.2655V1.15934H7.95522V6.31734C7.95522 7.6306 7.61395 8.62851 6.9314 9.31106C6.25749 9.9936 5.32006 10.3349 4.11912 10.3349ZM9.29332 10.2312L13.0646 5.08616V6.08406L9.50068 1.15934H10.9781L13.8033 5.03432L13.2201 5.04728L16.0324 1.15934H17.445L13.907 6.00631V5.0732L17.6783 10.2312H16.1879L13.1813 6.09702H13.7515L10.7837 10.2312H9.29332ZM19.2056 12.7454V0.615027H20.3591V12.7454H19.2056ZM26.8367 10.3349C25.6444 10.3349 24.707 9.9936 24.0245 9.31106C23.3419 8.62851 23.0006 7.6306 23.0006 6.31734V1.15934H24.2966V6.2655C24.2966 7.27637 24.5169 8.01507 24.9576 8.48163C25.4068 8.94818 26.0376 9.18146 26.8497 9.18146C27.6705 9.18146 28.3012 8.94818 28.7418 8.48163C29.1911 8.01507 29.4157 7.27637 29.4157 6.2655V1.15934H30.6728V6.31734C30.6728 7.6306 30.3316 8.62851 29.649 9.31106C28.9751 9.9936 28.0377 10.3349 26.8367 10.3349ZM33.3298 10.2312V1.15934H34.6258V10.2312H33.3298ZM40.8222 10.2312V1.15934H44.6453C45.613 1.15934 46.464 1.34942 47.1984 1.72957C47.9414 2.10972 48.516 2.64108 48.9221 3.32363C49.3368 4.00618 49.5441 4.79672 49.5441 5.69527C49.5441 6.59382 49.3368 7.38436 48.9221 8.06691C48.516 8.74946 47.9414 9.28082 47.1984 9.66097C46.464 10.0411 45.613 10.2312 44.6453 10.2312H40.8222ZM42.1182 9.1037H44.5676C45.3192 9.1037 45.9672 8.96114 46.5115 8.67602C47.0645 8.39091 47.4922 7.99348 47.7946 7.48372C48.097 6.96533 48.2482 6.36918 48.2482 5.69527C48.2482 5.01272 48.097 4.41657 47.7946 3.90682C47.4922 3.39706 47.0645 2.99963 46.5115 2.71452C45.9672 2.4294 45.3192 2.28684 44.5676 2.28684H42.1182V9.1037ZM52.7086 5.0732H57.3741V6.17478H52.7086V5.0732ZM52.8252 9.1037H58.1128V10.2312H51.5292V1.15934H57.9314V2.28684H52.8252V9.1037ZM62.8551 10.3349C62.1639 10.3349 61.5029 10.2312 60.8722 10.0238C60.2415 9.80785 59.7447 9.53137 59.3818 9.19442L59.8614 8.18355C60.207 8.48595 60.6476 8.7365 61.1833 8.93522C61.7189 9.13394 62.2762 9.2333 62.8551 9.2333C63.3821 9.2333 63.8098 9.17282 64.1381 9.05186C64.4664 8.9309 64.7083 8.76674 64.8638 8.55939C65.0194 8.34339 65.0971 8.10147 65.0971 7.83364C65.0971 7.5226 64.9934 7.27205 64.7861 7.08197C64.5874 6.89189 64.3239 6.74069 63.9955 6.62838C63.6759 6.50742 63.3216 6.40374 62.9328 6.31734C62.544 6.23094 62.1509 6.13158 61.7535 6.01927C61.3647 5.89831 61.0061 5.74711 60.6778 5.56567C60.3582 5.38423 60.099 5.14232 59.9002 4.83992C59.7015 4.52889 59.6022 4.13145 59.6022 3.64762C59.6022 3.18107 59.7231 2.75339 59.965 2.3646C60.2156 1.96717 60.5957 1.65181 61.1055 1.41854C61.6239 1.17662 62.2805 1.05566 63.0754 1.05566C63.6024 1.05566 64.1251 1.12478 64.6435 1.26302C65.1619 1.40126 65.6112 1.59997 65.9913 1.85917L65.5637 2.89595C65.1749 2.63676 64.7645 2.451 64.3325 2.33868C63.9005 2.21772 63.4815 2.15724 63.0754 2.15724C62.5656 2.15724 62.1466 2.22204 61.8183 2.35164C61.49 2.48124 61.2481 2.65404 61.0925 2.87003C60.9457 3.08603 60.8722 3.32795 60.8722 3.59578C60.8722 3.91546 60.9716 4.17033 61.1703 4.36041C61.3777 4.55049 61.6412 4.70169 61.9608 4.814C62.2892 4.92632 62.6477 5.03 63.0365 5.12504C63.4253 5.21144 63.8141 5.3108 64.2029 5.42311C64.6003 5.53543 64.9589 5.68231 65.2786 5.86375C65.6069 6.04518 65.8704 6.2871 66.0691 6.5895C66.2678 6.89189 66.3672 7.28069 66.3672 7.75588C66.3672 8.21379 66.2419 8.64147 65.9913 9.0389C65.7408 9.42769 65.352 9.74305 64.825 9.98496C64.3066 10.2182 63.6499 10.3349 62.8551 10.3349ZM68.2605 10.2312V1.15934H69.5565V10.2312H68.2605ZM76.3678 10.3349C75.668 10.3349 75.0243 10.2226 74.4368 9.99792C73.8493 9.76465 73.3395 9.44065 72.9075 9.02594C72.4755 8.60259 72.1386 8.11011 71.8967 7.54852C71.6547 6.98693 71.5338 6.36918 71.5338 5.69527C71.5338 5.02136 71.6547 4.40361 71.8967 3.84202C72.1386 3.28043 72.4755 2.79227 72.9075 2.37756C73.3482 1.95421 73.8622 1.63021 74.4497 1.40557C75.0373 1.1723 75.6852 1.05566 76.3937 1.05566C77.1108 1.05566 77.7675 1.1723 78.3636 1.40557C78.9598 1.63885 79.4652 1.98877 79.8799 2.45532L79.0764 3.25883C78.7049 2.89595 78.2988 2.63244 77.8582 2.46828C77.4262 2.29548 76.9553 2.20908 76.4456 2.20908C75.9272 2.20908 75.4433 2.29548 74.9941 2.46828C74.5534 2.64108 74.169 2.88299 73.8406 3.19403C73.521 3.50506 73.2704 3.87658 73.089 4.30857C72.9162 4.73192 72.8298 5.19416 72.8298 5.69527C72.8298 6.18774 72.9162 6.64998 73.089 7.08197C73.2704 7.50532 73.521 7.87684 73.8406 8.19651C74.169 8.50755 74.5534 8.74946 74.9941 8.92226C75.4347 9.09506 75.9142 9.18146 76.4326 9.18146C76.9164 9.18146 77.3787 9.10802 77.8193 8.96114C78.2686 8.80562 78.6833 8.55075 79.0634 8.19651L79.8021 9.18146C79.3529 9.56161 78.8258 9.85105 78.221 10.0498C77.6249 10.2398 77.0071 10.3349 76.3678 10.3349ZM78.558 9.01298V5.64343H79.8021V9.18146L78.558 9.01298ZM82.2834 10.2312V1.15934H83.3461L89.3465 8.61123H88.7893V1.15934H90.0852V10.2312H89.0225L83.0221 2.77931H83.5794V10.2312H82.2834Z" fill="#2D371D"/>
</svg>
