<svg width="330" height="70" viewBox="0 0 330 70" fill="none" xmlns="http://www.w3.org/2000/svg">
<path d="M3.39148 66.38C2.91148 66.38 2.51148 66.32 2.19148 66.2C1.83148 66.12 1.37148 66.08 0.811484 66.08C1.01148 65.8 1.49148 64.96 2.25148 63.56C3.01148 62.2 3.91148 60.5 4.95148 58.46C5.95148 56.42 7.01148 54.24 8.13148 51.92C9.21148 49.6 10.2115 47.32 11.1315 45.08C12.0915 42.8 12.8315 40.8 13.3515 39.08C13.6315 38.16 13.8515 37.12 14.0115 35.96C14.1715 34.76 14.2515 33.42 14.2515 31.94C14.2515 31.38 14.1915 30.9 14.0715 30.5C13.9515 30.1 13.7315 29.88 13.4115 29.84L16.4115 29.36C16.6515 29.32 16.8715 29.3 17.0715 29.3C17.2715 29.26 17.4515 29.24 17.6115 29.24C17.9715 29.24 18.2115 29.38 18.3315 29.66C18.4915 29.9 18.5715 30.42 18.5715 31.22C18.5715 32.22 18.3915 33.5 18.0315 35.06C17.7115 36.58 17.3315 37.92 16.8915 39.08C17.3315 38.36 17.8915 37.44 18.5715 36.32C19.2915 35.2 20.1115 34.06 21.0315 32.9C21.9515 31.74 22.9115 30.78 23.9115 30.02C24.9115 29.22 25.8915 28.82 26.8515 28.82C27.0515 28.82 27.3115 28.86 27.6315 28.94C28.7515 29.22 29.5315 29.78 29.9715 30.62C30.4515 31.42 30.6915 32.38 30.6915 33.5C30.6915 34.7 30.4515 36.02 29.9715 37.46C29.5315 38.9 28.9315 40.32 28.1715 41.72C27.4115 43.08 26.5715 44.32 25.6515 45.44C24.5315 46.84 23.1915 47.96 21.6315 48.8C20.0715 49.64 18.4715 50.06 16.8315 50.06C15.3515 50.06 13.9715 49.68 12.6915 48.92L6.87148 63.26C6.31148 64.62 5.75148 65.48 5.19148 65.84C4.63148 66.2 4.03148 66.38 3.39148 66.38ZM14.9115 48.8C16.0315 48.8 17.2915 48.28 18.6915 47.24C20.0915 46.2 21.4315 44.88 22.7115 43.28C24.0315 41.64 25.1315 40 26.0115 38.36C26.6115 37.24 27.0515 36.22 27.3315 35.3C27.6115 34.34 27.7515 33.52 27.7515 32.84C27.7515 31.28 27.1915 30.5 26.0715 30.5C25.5515 30.5 24.8715 30.78 24.0315 31.34C23.2315 31.9 22.2915 32.92 21.2115 34.4C20.0515 36 18.7715 38.02 17.3715 40.46C16.0115 42.86 14.6115 45.4 13.1715 48.08C13.6515 48.56 14.2315 48.8 14.9115 48.8ZM37.2877 50.24C35.8077 50.24 34.4677 49.76 33.2677 48.8C32.1077 47.84 31.5277 46.38 31.5277 44.42C31.5277 42.78 31.8877 41.04 32.6077 39.2C33.3677 37.36 34.3477 35.64 35.5477 34.04C36.7877 32.4 38.1477 31.08 39.6277 30.08C41.1477 29.04 42.6677 28.52 44.1877 28.52C44.9477 28.52 45.6877 28.74 46.4077 29.18C47.1277 29.62 47.4877 30.38 47.4877 31.46C47.4877 32.46 47.1077 33.56 46.3477 34.76C45.5877 35.96 44.5077 37.08 43.1077 38.12C42.5077 38.56 41.7477 38.98 40.8277 39.38C39.9077 39.78 38.9877 40.12 38.0677 40.4C37.1477 40.64 36.3877 40.76 35.7877 40.76C35.5877 41.24 35.3877 41.88 35.1877 42.68C35.0277 43.48 34.9477 44.3 34.9477 45.14C34.9477 46.14 35.1477 47.04 35.5477 47.84C35.9477 48.64 36.6877 49.04 37.7677 49.04C39.0877 49.04 40.3077 48.66 41.4277 47.9C42.5877 47.14 43.6077 46.18 44.4877 45.02C45.4077 43.86 46.1877 42.68 46.8277 41.48C47.4677 40.28 47.9677 39.26 48.3277 38.42C48.8077 38.42 49.0477 38.6 49.0477 38.96C48.5277 40.08 47.9277 41.3 47.2477 42.62C46.6077 43.94 45.8277 45.18 44.9077 46.34C44.0277 47.46 42.9477 48.4 41.6677 49.16C40.4277 49.88 38.9677 50.24 37.2877 50.24ZM36.2077 39.68C36.7677 39.68 37.7077 39.48 39.0277 39.08C40.3477 38.64 41.5477 37.96 42.6277 37.04C43.6677 36.12 44.4677 35.12 45.0277 34.04C45.5877 32.92 45.8677 31.98 45.8677 31.22C45.8677 30.34 45.5477 29.9 44.9077 29.9C44.4277 29.9 43.7677 30.22 42.9277 30.86C42.0877 31.5 41.0477 32.58 39.8077 34.1C39.0477 35.06 38.3277 36.1 37.6477 37.22C36.9677 38.34 36.4877 39.16 36.2077 39.68ZM42.5593 50.48C43.9993 47.56 45.3793 44.68 46.6993 41.84C48.0193 38.96 49.3793 36.22 50.7793 33.62C51.5793 32.18 52.2593 31.18 52.8193 30.62C53.3793 30.02 54.1193 29.72 55.0393 29.72C55.3593 29.72 55.6993 29.78 56.0593 29.9C56.4193 29.98 56.7793 30.02 57.1393 30.02C57.3793 30.02 57.5593 30 57.6793 29.96C57.1193 30.28 56.3793 31.08 55.4593 32.36C54.5793 33.6 53.6793 35.04 52.7593 36.68C51.8393 38.32 51.0193 39.86 50.2993 41.3C51.0593 40.38 51.8593 39.46 52.6993 38.54C53.5393 37.62 54.4593 36.74 55.4593 35.9C56.4193 35.06 57.5593 34.2 58.8793 33.32C60.2393 32.4 61.5593 31.64 62.8393 31.04C64.1193 30.44 65.1393 30.14 65.8993 30.14C66.1793 30.14 66.3793 30.16 66.4993 30.2C66.4993 30.2 66.2793 30.6 65.8393 31.4C65.3993 32.16 64.8393 33.18 64.1593 34.46C63.5193 35.7 62.8593 37.04 62.1793 38.48C61.4993 39.88 60.8793 41.24 60.3193 42.56C59.7993 43.84 59.4593 44.92 59.2993 45.8C59.1793 46.32 59.1193 46.8 59.1193 47.24C59.1193 47.88 59.2393 48.3 59.4793 48.5C59.7193 48.7 59.9793 48.8 60.2593 48.8C61.0193 48.8 61.7993 48.46 62.5993 47.78C63.3993 47.1 64.1593 46.24 64.8793 45.2C65.6393 44.12 66.3393 42.98 66.9793 41.78C67.6193 40.58 68.1593 39.46 68.5993 38.42C69.0793 38.42 69.3193 38.6 69.3193 38.96C68.8793 40.04 68.3193 41.24 67.6393 42.56C66.9993 43.84 66.2593 45.06 65.4193 46.22C64.6193 47.38 63.7193 48.34 62.7193 49.1C61.7193 49.86 60.6393 50.24 59.4793 50.24C58.6793 50.24 57.8393 49.96 56.9593 49.4C56.1193 48.84 55.6993 47.8 55.6993 46.28C55.6993 45.84 55.7393 45.38 55.8193 44.9C55.8993 44.38 56.0393 43.82 56.2393 43.22C56.5593 42.42 56.9393 41.56 57.3793 40.64C57.8193 39.72 58.5393 38.46 59.5393 36.86C59.8193 36.42 59.9793 36.08 60.0193 35.84C60.0993 35.6 60.1393 35.4 60.1393 35.24C60.1393 34.76 59.9193 34.52 59.4793 34.52C59.1193 34.52 58.5793 34.72 57.8593 35.12C57.1793 35.52 56.3193 36.22 55.2793 37.22C54.2793 38.18 53.0793 39.54 51.6793 41.3C50.3193 43.06 48.7393 45.66 46.9393 49.1C46.6593 49.62 46.3393 49.9 45.9793 49.94C45.6593 49.98 45.1993 50.02 44.5993 50.06C44.1993 50.1 43.8193 50.12 43.4593 50.12C43.0993 50.16 42.7993 50.28 42.5593 50.48ZM63.4927 69.14C61.7327 69.14 60.5327 68.72 59.8927 67.88C59.2527 67.04 58.9327 66.08 58.9327 65C58.9327 63.48 59.4327 62.08 60.4327 60.8C61.3927 59.52 62.6927 58.36 64.3327 57.32C65.9727 56.28 67.7927 55.34 69.7927 54.5C71.7927 53.7 73.8127 53 75.8527 52.4C76.6127 51.08 77.3127 49.58 77.9527 47.9C78.5927 46.18 79.1727 44.52 79.6927 42.92C80.2127 41.28 80.6327 39.94 80.9527 38.9C80.4727 39.78 79.8527 40.86 79.0927 42.14C78.3727 43.38 77.5527 44.6 76.6327 45.8C75.7127 47 74.7127 48 73.6327 48.8C72.5927 49.6 71.4927 50 70.3327 50C69.8927 50 69.3527 49.9 68.7127 49.7C68.1127 49.5 67.5727 49.14 67.0927 48.62C66.6527 48.06 66.4327 47.24 66.4327 46.16C66.4327 45.12 66.6927 44.06 67.2127 42.98C67.7727 41.9 68.3927 40.58 69.0727 39.02C68.9927 39.02 68.8927 38.98 68.7727 38.9C68.6527 38.78 68.5927 38.62 68.5927 38.42C68.6727 38.26 68.8727 37.86 69.1927 37.22C69.5127 36.54 69.8927 35.78 70.3327 34.94C70.7727 34.06 71.1927 33.22 71.5927 32.42C71.9927 31.62 72.3127 31 72.5527 30.56C72.9927 29.68 73.7527 29.24 74.8327 29.24H78.5527C78.2727 29.48 77.9127 29.76 77.4727 30.08C77.0727 30.36 76.6927 30.8 76.3327 31.4C75.2527 33.24 74.3127 35.02 73.5127 36.74C72.7127 38.42 71.8527 40.22 70.9327 42.14C70.4927 43.06 70.1727 43.9 69.9727 44.66C69.7727 45.42 69.6727 46.08 69.6727 46.64C69.6727 47.96 70.1127 48.62 70.9927 48.62C71.9527 48.62 73.1127 47.84 74.4727 46.28C75.5927 44.96 76.7127 43.4 77.8327 41.6C78.9927 39.76 80.0927 37.88 81.1327 35.96C82.2127 34 83.1527 32.2 83.9527 30.56C84.3927 29.68 85.1727 29.24 86.2927 29.24H89.5927C88.4327 30.04 87.5327 31.08 86.8927 32.36C86.2927 33.64 85.6127 35.28 84.8527 37.28C84.0127 39.48 83.2127 41.76 82.4527 44.12C81.6927 46.44 80.7927 48.84 79.7527 51.32C82.2327 50.56 84.2927 49.52 85.9327 48.2C87.6127 46.88 88.9727 45.38 90.0127 43.7C91.0927 42.02 91.9727 40.26 92.6527 38.42C93.1327 38.42 93.3727 38.6 93.3727 38.96C92.4527 41.08 91.5727 42.86 90.7327 44.3C89.9327 45.74 89.0327 46.96 88.0327 47.96C87.0727 48.96 85.8727 49.84 84.4327 50.6C83.0327 51.36 81.2527 52.1 79.0927 52.82C78.1327 54.58 77.1127 56.4 76.0327 58.28C74.9927 60.2 73.8527 61.98 72.6127 63.62C71.4127 65.26 70.0527 66.58 68.5327 67.58C67.0527 68.62 65.3727 69.14 63.4927 69.14ZM62.8327 67.88C64.6327 67.88 66.5127 66.64 68.4727 64.16C70.4327 61.72 72.5127 58.44 74.7127 54.32C73.1527 54.72 71.5327 55.3 69.8527 56.06C68.1727 56.82 66.5927 57.68 65.1127 58.64C63.6727 59.64 62.4927 60.72 61.5727 61.88C60.6527 63.04 60.1927 64.24 60.1927 65.48C60.1927 66.12 60.4127 66.68 60.8527 67.16C61.2527 67.64 61.9127 67.88 62.8327 67.88ZM112.775 26.42C111.775 26.42 110.715 26.28 109.595 26C108.515 25.72 107.415 25.44 106.295 25.16C105.215 24.88 104.195 24.74 103.235 24.74C102.435 24.74 101.695 24.88 101.015 25.16C100.335 25.4 99.7748 25.9 99.3348 26.66L99.1548 26.96C99.0348 27.12 98.9348 27.2 98.8548 27.2C98.7748 27.2 98.6948 27.14 98.6148 27.02C98.5348 26.9 98.5148 26.76 98.5548 26.6C98.9948 25.48 99.7948 24.6 100.955 23.96C102.115 23.28 103.435 22.94 104.915 22.94C105.955 22.94 107.275 23.08 108.875 23.36C110.515 23.64 111.995 23.78 113.315 23.78C114.155 23.78 115.095 23.74 116.135 23.66C117.215 23.54 118.235 23.28 119.195 22.88C120.195 22.44 120.955 21.74 121.475 20.78C121.875 20.78 122.075 20.92 122.075 21.2C121.315 23 120.275 24.32 118.955 25.16C117.635 26 115.575 26.42 112.775 26.42ZM88.8948 50C88.4548 50 88.0948 50 87.8148 50C87.4948 50.04 87.1748 50.14 86.8548 50.3C88.3348 47.46 89.7348 44.62 91.0548 41.78C92.3748 38.9 93.7148 36.18 95.0748 33.62C95.8748 32.18 96.5348 31.18 97.0548 30.62C97.6148 30.02 98.3548 29.72 99.2748 29.72C99.5948 29.72 99.9348 29.78 100.295 29.9C100.655 29.98 101.015 30.02 101.375 30.02C101.615 30.02 101.795 30 101.915 29.96C101.355 30.28 100.635 31.08 99.7548 32.36C98.8748 33.6 97.9748 35.04 97.0548 36.68C96.1348 38.32 95.3148 39.86 94.5948 41.3C95.3548 40.38 96.1348 39.46 96.9348 38.54C97.7748 37.62 98.6948 36.74 99.6948 35.9C100.575 35.14 101.495 34.32 102.455 33.44C103.455 32.52 104.435 31.74 105.395 31.1C106.355 30.46 107.195 30.14 107.915 30.14C108.195 30.14 108.375 30.16 108.455 30.2C109.215 30.52 109.595 31.04 109.595 31.76C109.595 32 109.495 32.36 109.295 32.84C108.775 34.2 108.095 35.6 107.255 37.04C106.455 38.44 105.695 39.86 104.975 41.3C105.575 40.58 106.315 39.7 107.195 38.66C108.115 37.62 109.035 36.7 109.955 35.9C110.835 35.1 111.955 34.26 113.315 33.38C114.675 32.5 116.015 31.74 117.335 31.1C118.655 30.46 119.715 30.14 120.515 30.14C120.795 30.14 120.995 30.16 121.115 30.2C121.115 30.2 120.895 30.6 120.455 31.4C120.015 32.16 119.455 33.18 118.775 34.46C118.135 35.7 117.475 37.04 116.795 38.48C116.115 39.88 115.495 41.24 114.935 42.56C114.415 43.84 114.075 44.92 113.915 45.8C113.795 46.32 113.735 46.8 113.735 47.24C113.735 47.88 113.855 48.3 114.095 48.5C114.335 48.7 114.595 48.8 114.875 48.8C115.675 48.8 116.455 48.46 117.215 47.78C118.015 47.1 118.795 46.24 119.555 45.2C120.315 44.12 120.995 42.98 121.595 41.78C122.235 40.58 122.775 39.46 123.215 38.42C123.695 38.42 123.935 38.6 123.935 38.96C123.495 40.04 122.935 41.24 122.255 42.56C121.615 43.84 120.875 45.06 120.035 46.22C119.195 47.38 118.275 48.34 117.275 49.1C116.275 49.86 115.195 50.24 114.035 50.24C113.195 50.24 112.395 49.96 111.635 49.4C110.915 48.84 110.555 47.8 110.555 46.28C110.555 44.64 110.935 43 111.695 41.36C112.495 39.72 113.315 38.22 114.155 36.86C114.555 36.18 114.755 35.64 114.755 35.24C114.755 34.76 114.515 34.52 114.035 34.52C113.635 34.52 113.075 34.72 112.355 35.12C111.675 35.52 110.815 36.22 109.775 37.22C109.135 37.82 108.375 38.66 107.495 39.74C106.655 40.78 105.795 41.92 104.915 43.16C104.035 44.4 103.275 45.62 102.635 46.82C101.995 48.02 101.575 49.08 101.375 50C100.775 50 100.295 49.76 99.9348 49.28C99.5748 48.76 99.3948 48.16 99.3948 47.48C99.3948 47.36 99.3948 47.24 99.3948 47.12C99.3948 47 99.4148 46.86 99.4548 46.7C99.6548 45.46 99.9748 44.42 100.415 43.58C100.855 42.7 101.355 41.68 101.915 40.52C102.195 40 102.515 39.4 102.875 38.72C103.235 38 103.555 37.32 103.835 36.68C104.115 36 104.255 35.44 104.255 35C104.255 34.6 104.095 34.4 103.775 34.4C103.415 34.4 102.935 34.58 102.335 34.94C101.775 35.3 101.235 35.72 100.715 36.2C100.195 36.64 99.7948 36.98 99.5148 37.22C98.5148 38.18 97.2948 39.56 95.8548 41.36C94.4548 43.16 92.9148 45.72 91.2348 49.04C90.9948 49.48 90.7148 49.76 90.3948 49.88C90.0748 49.96 89.5748 50 88.8948 50ZM136.222 50.18C135.302 50.18 134.482 49.92 133.762 49.4C133.082 48.88 132.742 47.82 132.742 46.22C132.742 45.54 132.782 44.9 132.862 44.3C132.982 43.7 133.122 43.06 133.282 42.38C132.922 42.98 132.422 43.72 131.782 44.6C131.142 45.48 130.422 46.34 129.622 47.18C128.862 48.02 128.062 48.72 127.222 49.28C126.422 49.84 125.662 50.12 124.942 50.12C123.902 50.12 123.062 49.66 122.422 48.74C121.782 47.78 121.462 46.54 121.462 45.02C121.462 43.38 121.842 41.62 122.602 39.74C123.362 37.86 124.402 36.06 125.722 34.34C127.042 32.62 128.562 31.22 130.282 30.14C132.002 29.06 133.802 28.52 135.682 28.52C136.602 28.52 137.482 28.68 138.322 29C139.162 29.28 139.902 29.76 140.542 30.44C140.822 30.72 140.962 31.04 140.962 31.4C140.962 31.64 140.862 31.84 140.662 32C140.462 32.16 140.202 32.2 139.882 32.12C139.442 30.72 138.502 30.02 137.062 30.02C136.382 30.02 135.602 30.24 134.722 30.68C133.642 31.24 132.482 32.14 131.242 33.38C130.042 34.58 128.902 35.96 127.822 37.52C126.782 39.04 125.922 40.58 125.242 42.14C124.562 43.7 124.222 45.12 124.222 46.4C124.222 47.72 124.722 48.38 125.722 48.38C126.602 48.38 127.502 47.96 128.422 47.12C129.382 46.28 130.282 45.24 131.122 44C132.002 42.72 132.802 41.46 133.522 40.22C134.242 38.98 134.802 37.98 135.202 37.22C135.802 36.14 136.362 35.24 136.882 34.52C137.402 33.8 138.142 33.44 139.102 33.44C139.542 33.44 139.982 33.5 140.422 33.62C140.862 33.74 141.322 33.76 141.802 33.68C140.602 34.88 139.542 36.3 138.622 37.94C137.742 39.58 137.062 41.2 136.582 42.8C136.102 44.36 135.862 45.68 135.862 46.76C135.862 47.96 136.262 48.56 137.062 48.56C137.702 48.56 138.382 48.2 139.102 47.48C139.862 46.76 140.582 45.86 141.262 44.78C141.982 43.66 142.642 42.54 143.242 41.42C143.842 40.26 144.322 39.26 144.682 38.42C144.882 38.42 145.042 38.44 145.162 38.48C145.322 38.52 145.402 38.68 145.402 38.96C145.362 39.12 145.282 39.3 145.162 39.5C145.082 39.66 144.942 39.96 144.742 40.4C144.422 41.04 143.982 41.9 143.422 42.98C142.862 44.06 142.202 45.16 141.442 46.28C140.682 47.36 139.862 48.28 138.982 49.04C138.102 49.8 137.182 50.18 136.222 50.18ZM154.006 45.74C154.006 44.66 154.206 43.5 154.606 42.26C153.886 43.54 153.086 44.78 152.206 45.98C151.326 47.14 150.386 48.1 149.386 48.86C148.386 49.62 147.366 50 146.326 50C145.886 50 145.366 49.9 144.766 49.7C144.166 49.46 143.646 49.08 143.206 48.56C142.766 48.04 142.546 47.3 142.546 46.34C142.546 45.14 142.886 43.88 143.566 42.56C144.246 41.2 144.846 40 145.366 38.96C144.926 38.96 144.706 38.78 144.706 38.42C145.026 37.78 145.446 36.92 145.966 35.84C146.526 34.72 147.066 33.66 147.586 32.66C148.106 31.62 148.466 30.92 148.666 30.56C148.946 30.12 149.246 29.8 149.566 29.6C149.886 29.36 150.346 29.24 150.946 29.24H154.666C153.986 29.76 153.366 30.34 152.806 30.98C152.286 31.58 151.626 32.7 150.826 34.34C150.826 34.34 150.686 34.62 150.406 35.18C150.126 35.74 149.766 36.46 149.326 37.34C148.926 38.18 148.506 39.04 148.066 39.92C147.666 40.8 147.326 41.54 147.046 42.14C146.526 43.26 146.186 44.16 146.026 44.84C145.866 45.48 145.786 46.08 145.786 46.64C145.786 47.96 146.226 48.62 147.106 48.62C148.066 48.62 149.226 47.84 150.586 46.28C151.706 44.96 152.806 43.38 153.886 41.54C154.966 39.7 155.986 37.8 156.946 35.84C157.946 33.88 158.826 32.12 159.586 30.56C160.026 29.68 160.806 29.24 161.926 29.24H165.226C164.666 29.72 164.106 30.3 163.546 30.98C163.026 31.62 162.446 32.5 161.806 33.62C161.206 34.74 160.466 36.2 159.586 38C159.306 38.6 158.946 39.38 158.506 40.34C158.066 41.26 157.666 42.24 157.306 43.28C156.986 44.32 156.826 45.32 156.826 46.28C156.826 47.72 157.186 48.44 157.906 48.44C158.426 48.44 159.026 48.06 159.706 47.3C160.386 46.5 161.026 45.58 161.626 44.54C162.226 43.46 162.646 42.5 162.886 41.66L164.386 42.02C164.946 42.18 165.146 42.5 164.986 42.98C164.426 44.54 163.846 45.94 163.246 47.18C162.646 48.42 162.146 49.42 161.746 50.18C162.586 49.74 163.366 49.18 164.086 48.5C164.846 47.78 165.506 47.06 166.066 46.34C166.946 45.1 167.666 43.9 168.226 42.74C168.826 41.58 169.526 40.14 170.326 38.42C170.806 38.34 171.046 38.52 171.046 38.96C169.886 41.56 168.766 43.68 167.686 45.32C166.646 46.96 165.586 48.26 164.506 49.22C163.466 50.14 162.346 50.88 161.146 51.44C160.426 52.88 159.546 54.38 158.506 55.94C157.466 57.5 156.226 58.82 154.786 59.9C153.386 60.98 151.706 61.52 149.746 61.52C148.506 61.52 147.586 61.26 146.986 60.74C146.426 60.22 146.146 59.58 146.146 58.82C146.146 57.98 146.466 57.12 147.106 56.24C147.746 55.4 148.746 54.66 150.106 54.02C151.386 53.46 152.706 52.98 154.066 52.58C155.466 52.18 156.906 51.78 158.386 51.38L159.586 49.28C159.906 48.72 160.186 48.2 160.426 47.72C160.706 47.24 160.946 46.78 161.146 46.34C160.546 47.26 159.866 48.1 159.106 48.86C158.346 49.62 157.566 50 156.766 50C156.006 50 155.346 49.64 154.786 48.92C154.266 48.16 154.006 47.1 154.006 45.74ZM149.086 60.56C149.766 60.56 150.526 60.26 151.366 59.66C152.206 59.1 153.046 58.38 153.886 57.5C154.726 56.66 155.466 55.8 156.106 54.92C156.786 54.04 157.306 53.26 157.666 52.58C156.506 52.9 155.226 53.26 153.826 53.66C152.426 54.1 151.386 54.48 150.706 54.8C149.546 55.32 148.646 55.96 148.006 56.72C147.406 57.48 147.106 58.18 147.106 58.82C147.106 59.34 147.286 59.76 147.646 60.08C148.046 60.4 148.526 60.56 149.086 60.56ZM172.051 50C171.611 50 171.071 49.9 170.431 49.7C169.831 49.5 169.291 49.14 168.811 48.62C168.371 48.06 168.151 47.24 168.151 46.16C168.151 45.12 168.491 43.92 169.171 42.56C169.851 41.2 170.451 40 170.971 38.96C170.531 38.96 170.311 38.78 170.311 38.42C170.351 38.3 170.531 37.92 170.851 37.28C171.171 36.64 171.551 35.88 171.991 35C172.431 34.12 172.851 33.28 173.251 32.48C173.691 31.64 174.031 31 174.271 30.56C174.751 29.68 175.511 29.24 176.551 29.24H180.271C179.591 29.76 178.971 30.34 178.411 30.98C177.891 31.58 177.231 32.7 176.431 34.34C176.431 34.34 176.291 34.62 176.011 35.18C175.731 35.74 175.371 36.46 174.931 37.34C174.531 38.18 174.111 39.04 173.671 39.92C173.271 40.8 172.931 41.54 172.651 42.14C172.131 43.26 171.791 44.16 171.631 44.84C171.471 45.48 171.391 46.08 171.391 46.64C171.391 47.96 171.831 48.62 172.711 48.62C173.671 48.62 174.831 47.84 176.191 46.28C177.311 44.96 178.411 43.38 179.491 41.54C180.571 39.7 181.591 37.8 182.551 35.84C183.551 33.88 184.431 32.12 185.191 30.56C185.631 29.68 186.411 29.24 187.531 29.24H190.831C189.951 29.96 189.051 31.04 188.131 32.48C187.251 33.92 186.271 35.76 185.191 38C184.911 38.6 184.551 39.36 184.111 40.28C183.671 41.2 183.271 42.18 182.911 43.22C182.591 44.26 182.431 45.3 182.431 46.34C182.431 47.74 182.931 48.44 183.931 48.44C185.291 48.44 186.611 47.5 187.891 45.62C189.171 43.74 190.431 41.34 191.671 38.42C191.991 38.42 192.171 38.44 192.211 38.48C192.291 38.52 192.351 38.68 192.391 38.96C191.951 40.04 191.411 41.22 190.771 42.5C190.171 43.74 189.471 44.94 188.671 46.1C187.911 47.26 187.051 48.2 186.091 48.92C185.171 49.64 184.151 50 183.031 50C182.031 50 181.211 49.64 180.571 48.92C179.931 48.16 179.611 47.1 179.611 45.74C179.611 44.66 179.811 43.5 180.211 42.26C179.531 43.46 178.751 44.66 177.871 45.86C176.991 47.06 176.051 48.06 175.051 48.86C174.051 49.62 173.051 50 172.051 50ZM193.738 41.36C193.578 41.72 193.318 42.28 192.958 43.04C192.638 43.76 192.278 44.56 191.878 45.44C191.518 46.28 191.178 47.04 190.858 47.72C190.578 48.4 190.378 48.86 190.258 49.1C190.018 49.58 189.758 49.88 189.478 50C189.238 50.08 188.738 50.12 187.978 50.12H186.838C186.558 50.12 186.258 50.22 185.938 50.42C186.578 49.14 187.278 47.74 188.038 46.22C188.758 44.7 189.438 43.26 190.078 41.9C190.718 40.54 191.238 39.42 191.638 38.54C192.078 37.66 192.478 36.86 192.838 36.14C193.238 35.38 193.678 34.56 194.158 33.68C194.998 32.12 195.678 31.1 196.198 30.62C196.758 30.1 197.418 29.84 198.178 29.84C198.498 29.84 198.798 29.86 199.078 29.9C199.358 29.94 199.578 29.98 199.738 30.02C199.818 30.02 199.938 30.04 200.098 30.08C200.298 30.12 200.598 30.12 200.998 30.08C200.478 30.36 199.838 31.02 199.078 32.06C198.318 33.1 197.538 34.3 196.738 35.66C195.978 36.98 195.278 38.26 194.638 39.5C195.398 38.74 196.198 38.36 197.038 38.36C197.678 38.36 198.198 38.48 198.598 38.72C198.998 38.92 199.358 39.02 199.678 39.02H199.738C200.378 37.22 201.258 35.56 202.378 34.04C203.538 32.48 204.798 31.24 206.158 30.32C207.558 29.4 208.938 28.94 210.298 28.94C211.938 28.94 213.138 29.5 213.898 30.62C214.698 31.74 215.098 33.16 215.098 34.88C215.098 36.48 214.758 38.16 214.078 39.92C213.438 41.64 212.558 43.28 211.438 44.84C210.358 46.36 209.138 47.6 207.778 48.56C206.418 49.52 205.038 50 203.638 50C201.998 50 200.778 49.42 199.978 48.26C199.218 47.06 198.838 45.62 198.838 43.94C198.838 42.86 198.978 41.74 199.258 40.58C198.938 40.78 198.598 40.88 198.238 40.88C197.598 40.88 197.098 40.74 196.738 40.46C196.378 40.18 195.958 40.04 195.478 40.04C195.238 40.04 194.958 40.12 194.638 40.28C194.358 40.44 194.058 40.8 193.738 41.36ZM213.598 34.4C213.598 33.36 213.398 32.52 212.998 31.88C212.638 31.2 212.058 30.86 211.258 30.86C210.418 30.86 209.538 31.22 208.618 31.94C207.698 32.66 206.818 33.62 205.978 34.82C205.178 36.02 204.478 37.36 203.878 38.84C203.358 40.08 202.958 41.26 202.678 42.38C202.398 43.46 202.258 44.46 202.258 45.38C202.258 46.38 202.438 47.18 202.798 47.78C203.158 48.38 203.718 48.68 204.478 48.68C205.358 48.68 206.318 48.26 207.358 47.42C208.398 46.54 209.378 45.4 210.298 44C211.258 42.6 212.038 41.06 212.638 39.38C213.278 37.7 213.598 36.04 213.598 34.4ZM236.045 50.72C235.605 50.72 234.945 50.56 234.065 50.24C233.185 49.96 232.245 49.62 231.245 49.22C230.245 48.78 229.305 48.38 228.425 48.02C227.585 47.62 226.985 47.34 226.625 47.18L222.485 50.48C222.325 50.56 222.125 50.54 221.885 50.42C221.645 50.3 221.565 50.16 221.645 50C221.685 49.92 221.985 49.56 222.545 48.92C223.105 48.24 223.765 47.5 224.525 46.7C225.245 45.86 225.905 45.12 226.505 44.48C227.105 43.84 227.445 43.5 227.525 43.46H228.065C228.305 43.46 228.585 43.5 228.905 43.58C229.905 42.7 231.185 41.54 232.745 40.1C234.305 38.66 235.945 37.06 237.665 35.3C239.385 33.54 241.005 31.74 242.525 29.9C244.085 28.02 245.345 26.22 246.305 24.5C247.265 22.74 247.745 21.18 247.745 19.82C247.745 18.86 247.485 18.18 246.965 17.78C246.445 17.38 245.725 17.18 244.805 17.18C243.285 17.18 241.865 17.68 240.545 18.68C239.225 19.68 238.065 20.92 237.065 22.4C236.105 23.84 235.365 25.22 234.845 26.54C234.765 26.7 234.685 26.78 234.605 26.78C234.365 26.9 234.125 26.9 233.885 26.78C233.805 26.58 233.785 26.44 233.825 26.36C234.465 24.6 235.365 22.88 236.525 21.2C237.725 19.48 239.165 18.06 240.845 16.94C242.525 15.82 244.385 15.26 246.425 15.26C247.945 15.26 249.225 15.7 250.265 16.58C251.345 17.42 251.885 18.66 251.885 20.3C251.885 21.38 251.465 22.62 250.625 24.02C249.785 25.42 248.665 26.9 247.265 28.46C245.865 30.02 244.345 31.58 242.705 33.14C241.065 34.7 239.425 36.18 237.785 37.58C236.145 38.98 234.645 40.24 233.285 41.36C231.925 42.44 230.865 43.3 230.105 43.94C230.505 44.1 231.085 44.38 231.845 44.78C232.605 45.14 233.425 45.52 234.305 45.92C235.185 46.32 235.985 46.66 236.705 46.94C237.465 47.22 238.025 47.36 238.385 47.36C239.225 47.36 240.005 47.16 240.725 46.76C241.485 46.32 242.165 45.82 242.765 45.26C243.365 44.7 243.865 44.2 244.265 43.76C244.705 43.28 245.005 43.02 245.165 42.98C245.245 42.94 245.345 42.98 245.465 43.1C245.625 43.22 245.685 43.38 245.645 43.58C245.165 44.18 244.545 44.88 243.785 45.68C243.065 46.48 242.245 47.26 241.325 48.02C240.445 48.78 239.545 49.42 238.625 49.94C237.705 50.46 236.845 50.72 236.045 50.72ZM257.888 50.48L257.648 50.42V50.18C257.648 50.1 257.828 49.7 258.188 48.98C258.588 48.22 259.048 47.32 259.568 46.28C260.128 45.2 260.708 44.12 261.308 43.04C261.908 41.92 262.408 40.96 262.808 40.16C263.248 39.36 263.528 38.86 263.648 38.66L248.948 39.08V38.6C248.988 38.44 249.028 38.34 249.068 38.3C249.108 38.26 249.148 38.22 249.188 38.18C250.588 36.42 252.168 34.68 253.928 32.96C255.688 31.2 257.248 29.58 258.608 28.1C259.968 26.58 261.308 25.04 262.628 23.48C263.988 21.92 265.368 20.22 266.768 18.38C267.448 17.46 268.088 16.84 268.688 16.52C269.288 16.2 269.948 16 270.668 15.92C271.388 15.8 272.288 15.64 273.368 15.44L273.728 15.68L273.788 16.1C273.828 16.38 273.488 16.94 272.768 17.78C272.048 18.62 271.068 19.66 269.828 20.9C268.588 22.1 267.208 23.42 265.688 24.86C264.168 26.26 262.608 27.66 261.008 29.06C259.448 30.46 257.988 31.78 256.628 33.02C255.268 34.22 254.108 35.24 253.148 36.08C252.188 36.92 251.568 37.46 251.288 37.7L264.368 37.46L268.268 29.84C268.588 29.28 269.108 28.96 269.828 28.88C270.548 28.8 271.168 28.74 271.688 28.7L272.108 28.82V29.24C272.108 29.28 271.928 29.68 271.568 30.44C271.208 31.2 270.768 32.08 270.248 33.08C269.768 34.04 269.308 34.92 268.868 35.72C268.468 36.52 268.208 37.02 268.088 37.22H269.828C270.068 37.22 270.188 37.3 270.188 37.46C270.188 37.62 270.108 37.86 269.948 38.18C269.868 38.34 269.728 38.42 269.528 38.42L267.428 38.48C267.188 38.92 266.788 39.7 266.228 40.82C265.708 41.94 265.128 43.14 264.488 44.42C263.888 45.66 263.328 46.78 262.808 47.78C262.288 48.74 261.928 49.32 261.728 49.52C261.648 49.6 261.328 49.72 260.768 49.88C260.208 50.04 259.628 50.18 259.028 50.3C258.468 50.42 258.088 50.48 257.888 50.48ZM278.783 51.92C278.503 52.2 278.243 52.36 278.003 52.4C277.763 52.44 277.583 52.46 277.463 52.46C277.103 52.46 276.923 52.28 276.923 51.92C276.923 51.64 277.083 51.32 277.403 50.96C277.723 50.6 277.983 50.3 278.183 50.06C279.223 48.86 280.703 47.1 282.623 44.78C284.583 42.46 286.883 39.72 289.523 36.56C292.163 33.4 295.023 29.94 298.103 26.18C301.183 22.42 304.383 18.48 307.703 14.36C311.063 10.24 314.423 6.06 317.783 1.82C318.063 1.46 318.383 1.22 318.743 1.1C319.103 0.939996 319.463 0.859996 319.823 0.859996C320.183 0.859996 320.503 0.939996 320.783 1.1C321.063 1.26 321.203 1.48 321.203 1.76C321.203 1.92 321.083 2.16 320.843 2.48C319.443 4.12 317.743 6.12 315.743 8.48C313.783 10.8 311.643 13.32 309.323 16.04C307.003 18.76 304.623 21.58 302.183 24.5C299.743 27.38 297.323 30.22 294.923 33.02C292.563 35.82 290.323 38.46 288.203 40.94C286.123 43.42 284.263 45.62 282.623 47.54C280.983 49.42 279.703 50.88 278.783 51.92ZM303.262 50.3L302.842 50.18L302.782 49.94C302.782 49.62 303.162 48.88 303.922 47.72C304.722 46.56 305.742 45.16 306.982 43.52C308.262 41.84 309.682 40.04 311.242 38.12C312.802 36.16 314.382 34.22 315.982 32.3C317.582 30.34 319.082 28.52 320.482 26.84C321.882 25.12 323.082 23.66 324.082 22.46C325.082 21.26 325.742 20.46 326.062 20.06C322.902 19.94 319.662 19.88 316.342 19.88C315.022 19.88 314.022 20.1 313.342 20.54C312.702 20.98 312.222 21.48 311.902 22.04C311.582 22.6 311.302 23.12 311.062 23.6C310.862 24.04 310.542 24.26 310.102 24.26L309.922 24.2L309.862 23.78C310.342 22.06 310.802 20.7 311.242 19.7C311.722 18.66 312.282 17.88 312.922 17.36C313.562 16.8 314.422 16.44 315.502 16.28C316.582 16.08 318.022 15.98 319.822 15.98C321.222 15.98 322.642 16.02 324.082 16.1C325.522 16.18 326.982 16.32 328.462 16.52C328.582 16.44 328.762 16.3 329.002 16.1C329.242 15.86 329.442 15.74 329.602 15.74C329.842 15.82 329.962 15.96 329.962 16.16C329.962 16.24 329.922 16.36 329.842 16.52C329.282 17.36 328.882 17.98 328.642 18.38C328.402 18.74 328.162 19.08 327.922 19.4C327.722 19.68 327.382 20.14 326.902 20.78C326.462 21.38 325.762 22.32 324.802 23.6C323.842 24.88 322.482 26.7 320.722 29.06C318.962 31.42 317.222 34.02 315.502 36.86C313.782 39.7 312.102 42.36 310.462 44.84C310.382 44.96 310.182 45.28 309.862 45.8C309.582 46.28 309.262 46.82 308.902 47.42C308.582 48.02 308.282 48.56 308.002 49.04C307.722 49.48 307.562 49.72 307.522 49.76C307.082 50.04 306.402 50.18 305.482 50.18C304.602 50.22 303.862 50.26 303.262 50.3Z" fill="#03281D"/>
</svg>
